<?xml version="1.0" standalone="no"?>
<!DOCTYPE svg PUBLIC "-//W3C//DTD SVG 20010904//EN"
 "http://www.w3.org/TR/2001/REC-SVG-20010904/DTD/svg10.dtd">
<svg version="1.0" xmlns="http://www.w3.org/2000/svg"
 width="626.000000pt" height="626.000000pt" viewBox="0 0 626.000000 626.000000"
 preserveAspectRatio="xMidYMid meet">
<metadata>
Created by potrace 1.11, written by Peter Selinger 2001-2013
</metadata>
<g transform="translate(0.000000,626.000000) scale(0.100000,-0.100000)"
fill="#000000" stroke="none">
<path d="M2940 6254 c-14 -3 -109 -16 -211 -29 -601 -79 -1147 -321 -1608
-710 -590 -499 -980 -1194 -1080 -1928 -37 -272 -41 -313 -41 -457 0 -144 4
-185 41 -457 66 -483 270 -981 568 -1383 449 -607 1088 -1028 1826 -1204 125
-29 237 -47 444 -72 272 -31 653 -4 986 72 125 28 407 119 532 172 208 88 483
247 642 371 47 36 93 71 102 76 53 30 348 320 430 422 121 151 171 220 274
383 123 194 248 474 321 720 26 86 79 304 90 371 8 47 -10 102 -49 145 -40 47
-77 64 -135 65 -70 2 -117 -17 -156 -62 -29 -35 -38 -59 -65 -177 -18 -75 -45
-182 -62 -237 -164 -544 -505 -1035 -959 -1378 -903 -684 -2141 -753 -3101
-171 -505 305 -910 773 -1126 1299 -99 241 -152 447 -194 755 -15 110 -15 470
0 580 33 244 68 403 127 576 108 323 272 613 498 884 287 344 696 640 1091
790 188 72 207 78 325 109 507 132 1040 117 1549 -43 507 -160 993 -495 1317
-907 61 -78 234 -331 234 -343 0 -3 20 -43 45 -88 104 -186 191 -428 250 -688
38 -168 57 -205 125 -241 42 -23 139 -25 179 -5 66 35 118 126 108 189 -34
221 -127 522 -234 759 -92 204 -245 460 -365 610 -29 37 -64 82 -78 100 -14
18 -55 64 -91 103 -36 38 -79 84 -95 102 -85 93 -359 317 -489 401 -270 173
-448 259 -750 362 -322 109 -620 160 -970 165 -121 2 -231 1 -245 -1z"/>
<path d="M2505 4101 c-85 -21 -136 -74 -154 -159 -15 -73 -15 -1535 0 -1618
19 -104 88 -164 190 -164 48 0 108 28 857 403 444 221 819 413 834 426 79 65
85 198 14 272 -25 25 -245 140 -822 428 -434 216 -811 400 -839 407 -27 8 -50
13 -50 13 0 -1 -13 -4 -30 -8z m704 -741 c255 -127 447 -228 442 -233 -5 -5
-211 -110 -457 -233 l-449 -224 -5 443 c-3 243 -3 450 -1 460 2 10 7 17 12 15
4 -2 211 -104 458 -228z"/>
</g>
</svg>
